<?xml version="1.0" encoding="UTF-8" ?>
<!DOCTYPE svg PUBLIC "-//W3C//DTD SVG 1.1//EN" "http://www.w3.org/Graphics/SVG/1.1/DTD/svg11.dtd">
<svg width="304pt" height="52pt" viewBox="0 0 304 52" version="1.1" xmlns="http://www.w3.org/2000/svg">
<g id="#669bb5ff">
<path fill="#669bb5" opacity="1.00" d=" M 22.52 0.00 L 25.26 0.00 C 30.17 0.27 34.60 2.54 38.53 5.32 C 39.11 4.03 39.69 2.73 40.27 1.44 C 42.12 1.43 43.97 1.42 45.83 1.41 C 45.83 7.79 45.83 14.17 45.83 20.55 C 43.95 20.54 42.08 20.53 40.20 20.52 C 38.65 16.23 36.90 11.63 33.01 8.91 C 28.49 5.72 21.49 5.22 17.36 9.32 C 12.98 13.61 11.76 20.07 11.67 25.97 C 11.73 31.23 12.37 36.93 15.73 41.22 C 19.56 46.08 26.96 46.80 32.31 44.27 C 36.87 42.01 37.61 35.97 36.33 31.56 C 34.50 29.06 30.77 30.12 28.09 29.73 C 28.11 27.93 28.12 26.14 28.12 24.34 C 37.11 24.36 46.09 24.32 55.08 24.36 C 55.08 26.13 55.08 27.90 55.08 29.67 C 52.61 29.90 49.98 29.63 47.69 30.73 C 46.82 37.30 47.54 43.97 47.32 50.58 C 45.49 50.58 43.66 50.58 41.83 50.58 C 40.97 49.39 40.10 48.20 39.24 47.01 C 35.30 49.66 30.84 51.59 26.07 52.00 L 21.40 52.00 C 12.37 51.66 4.19 45.26 1.57 36.64 C -1.23 27.17 -0.63 15.84 5.85 7.95 C 9.85 2.94 16.16 0.17 22.52 0.00 Z" />
<path fill="#669bb5" opacity="1.00" d=" M 65.18 1.17 C 68.90 -1.15 74.07 2.78 73.03 6.94 C 72.40 10.63 67.64 12.67 64.63 10.35 C 61.34 8.28 61.66 2.82 65.18 1.17 Z" />
<path fill="#669bb5" opacity="1.00" d=" M 123.07 19.99 C 129.34 13.07 141.74 12.86 147.87 20.08 C 151.28 23.93 152.33 29.18 152.37 34.18 C 144.33 34.22 136.29 34.17 128.26 34.20 C 128.50 37.35 128.63 40.78 130.69 43.36 C 133.29 46.67 138.38 46.83 141.85 44.89 C 144.30 43.51 145.05 40.65 145.98 38.21 C 148.04 38.22 150.10 38.24 152.17 38.28 C 151.40 43.40 148.72 48.72 143.51 50.49 C 135.80 53.10 125.17 52.02 120.82 44.25 C 117.03 36.70 117.31 26.50 123.07 19.99 M 130.46 22.46 C 128.98 24.38 128.76 26.90 128.18 29.18 C 132.92 29.20 137.65 29.20 142.38 29.18 C 141.89 26.92 141.87 24.41 140.50 22.45 C 138.26 19.17 132.73 19.26 130.46 22.46 Z" />
<path fill="#669bb5" opacity="1.00" d=" M 57.85 15.83 C 62.95 15.83 68.06 15.83 73.16 15.83 C 73.21 24.91 73.06 33.99 73.21 43.07 C 73.04 46.61 77.49 45.40 79.74 45.75 C 79.73 47.36 79.72 48.97 79.72 50.59 C 72.43 50.55 65.14 50.58 57.85 50.57 C 57.85 48.97 57.85 47.37 57.85 45.77 C 59.64 45.66 61.47 45.72 63.24 45.34 C 64.67 43.92 64.13 41.78 64.27 39.98 C 64.11 33.96 64.52 27.93 64.05 21.92 C 62.38 20.35 59.91 20.96 57.84 20.71 C 57.85 19.09 57.85 17.46 57.85 15.83 Z" />
<path fill="#669bb5" opacity="1.00" d=" M 79.28 15.83 C 85.57 15.84 91.86 15.83 98.15 15.83 C 98.15 17.41 98.15 19.00 98.16 20.58 C 96.65 20.89 94.79 20.60 93.76 22.00 C 95.27 29.07 98.08 35.78 100.02 42.73 C 102.14 36.13 104.89 29.70 106.60 22.98 C 107.14 20.06 103.33 21.08 101.59 20.70 C 101.59 19.07 101.60 17.45 101.59 15.83 C 107.14 15.83 112.69 15.83 118.24 15.83 C 118.24 17.39 118.24 18.94 118.25 20.50 C 116.27 21.23 113.63 21.60 113.06 24.03 C 109.77 32.85 106.74 41.77 103.47 50.60 C 100.25 50.57 97.04 50.56 93.83 50.58 C 90.53 41.42 87.44 32.18 84.05 23.05 C 83.60 20.80 80.91 21.18 79.23 20.53 C 79.25 18.96 79.27 17.40 79.28 15.83 Z" />
</g>
<g id="#333332ff">
<path fill="#333332" opacity="1.00" d=" M 156.51 1.41 C 163.71 1.44 170.92 1.41 178.12 1.44 C 178.11 3.18 178.11 4.93 178.12 6.68 C 176.49 6.90 174.86 7.05 173.26 7.43 C 172.15 8.55 173.06 10.18 173.25 11.48 C 175.78 20.37 178.00 29.34 180.61 38.20 C 183.42 29.81 186.29 21.45 189.25 13.11 C 188.39 11.27 187.98 9.08 186.51 7.60 C 184.97 7.03 183.31 6.96 181.71 6.68 C 181.71 4.93 181.71 3.17 181.71 1.42 C 189.18 1.44 196.66 1.41 204.13 1.44 C 204.13 3.20 204.13 4.96 204.13 6.71 C 202.22 6.92 200.30 7.03 198.43 7.44 C 197.76 8.93 198.64 10.54 198.92 12.01 C 201.56 20.57 203.94 29.22 206.71 37.74 C 208.88 29.40 211.34 21.13 213.70 12.83 C 214.14 11.23 214.51 9.58 214.47 7.90 C 212.40 6.80 209.97 7.02 207.71 6.78 C 207.71 4.99 207.71 3.20 207.71 1.42 C 214.56 1.44 221.41 1.43 228.26 1.42 C 228.26 3.16 228.26 4.90 228.26 6.65 C 226.49 7.30 224.00 7.05 222.94 8.92 C 221.65 11.30 221.11 13.98 220.33 16.55 C 217.02 27.90 213.63 39.24 210.29 50.59 C 207.03 50.57 203.76 50.57 200.50 50.60 C 197.85 42.11 195.22 33.61 192.73 25.08 C 189.67 33.52 186.93 42.08 184.02 50.57 C 180.68 50.57 177.35 50.57 174.02 50.56 C 170.30 37.81 166.49 25.09 162.81 12.34 C 162.33 10.81 161.89 9.25 161.13 7.83 C 159.65 7.30 158.08 7.07 156.55 6.74 C 156.54 4.96 156.52 3.19 156.51 1.41 Z" />
<path fill="#333332" opacity="1.00" d=" M 257.50 1.41 C 262.62 1.44 267.74 1.43 272.86 1.42 C 272.86 14.30 272.89 27.17 272.84 40.05 C 272.88 41.80 272.83 43.65 273.68 45.24 C 275.57 45.69 277.52 45.66 279.45 45.80 C 279.44 47.40 279.44 48.99 279.44 50.59 C 272.13 50.56 264.81 50.56 257.50 50.59 C 257.50 48.99 257.49 47.39 257.49 45.79 C 259.42 45.66 261.40 45.70 263.30 45.25 C 264.27 43.69 264.10 41.77 264.18 40.01 C 264.13 30.68 264.13 21.34 264.18 12.01 C 264.09 10.25 264.28 8.32 263.26 6.78 C 261.36 6.37 259.41 6.42 257.49 6.30 C 257.49 4.67 257.50 3.04 257.50 1.41 Z" />
<path fill="#333332" opacity="1.00" d=" M 282.25 1.42 C 287.37 1.43 292.50 1.43 297.63 1.41 C 297.64 14.27 297.66 27.13 297.60 39.98 C 297.75 41.74 297.35 43.83 298.69 45.24 C 300.43 45.65 302.22 45.74 304.00 45.94 L 304.00 50.56 C 296.75 50.59 289.49 50.56 282.24 50.58 C 282.24 49.02 282.23 47.46 282.23 45.90 C 284.30 45.59 286.56 45.82 288.45 44.79 C 289.12 40.56 288.72 36.25 288.80 31.99 C 288.67 24.32 289.00 16.65 288.70 9.00 C 288.86 5.60 284.39 6.67 282.22 6.20 C 282.23 4.61 282.24 3.01 282.25 1.42 Z" />
<path fill="#333332" opacity="1.00" d=" M 227.35 20.43 C 233.52 13.01 246.56 12.68 252.70 20.33 C 256.01 24.13 256.97 29.28 256.95 34.19 C 248.93 34.22 240.91 34.16 232.88 34.22 C 233.26 37.39 233.23 40.95 235.45 43.50 C 238.16 46.74 243.31 46.83 246.74 44.73 C 249.02 43.30 249.69 40.51 250.70 38.19 C 252.74 38.21 254.79 38.23 256.84 38.25 C 256.01 43.28 253.52 48.55 248.41 50.39 C 240.32 53.33 228.81 51.87 224.92 43.17 C 221.95 35.93 222.13 26.63 227.35 20.43 M 236.88 20.86 C 233.97 22.57 233.52 26.18 232.84 29.17 C 237.55 29.20 242.27 29.20 246.99 29.17 C 246.54 26.76 246.49 24.06 244.86 22.07 C 243.01 19.75 239.38 19.53 236.88 20.86 Z" />
</g>
</svg>
