<?xml version="1.0" encoding="UTF-8"?>
<!-- Generator: Adobe Illustrator 27.2.0, SVG Export Plug-In . SVG Version: 6.00 Build 0)  -->
<svg xmlns="http://www.w3.org/2000/svg" xmlns:xlink="http://www.w3.org/1999/xlink" version="1.1" id="Layer_1" x="0px" y="0px" viewBox="0 0 2330 1370" style="enable-background:new 0 0 2330 1370;" xml:space="preserve">
<style type="text/css">
	.st0{fill-rule:evenodd;clip-rule:evenodd;fill:url(#SVGID_1_);}
</style>
<linearGradient id="SVGID_1_" gradientUnits="userSpaceOnUse" x1="1167.4825" y1="0.5" x2="1167.4825" y2="1370.5">
	<stop offset="0" style="stop-color:#99ABCA"></stop>
	<stop offset="0.1804" style="stop-color:#9AAAC5"></stop>
	<stop offset="0.3991" style="stop-color:#9FA9B6"></stop>
	<stop offset="0.6377" style="stop-color:#A6A69E"></stop>
	<stop offset="0.8889" style="stop-color:#B0A27C"></stop>
	<stop offset="1" style="stop-color:#B5A06A"></stop>
</linearGradient>
<path class="st0" d="M546.5,212.5l-2-12c-12-63-48-119-101-156c-41-29-90-44-140-44H150.6c-76,0-141,58-144,134  c-4,80,60,146,140,146h18c0,0,1,0,1,1c10,50,54,87,107,87c62,0,112-51,109-114c-2-55-47-101-101-105c-57-4-106,36-116,89  c-1,1-2,1-2,2h-12c-53,0-100-40-104-94c-3-58,43-106,100-106h158.9c42,0,83,13,118,37c44,31,75,78,85,131l2,12c5,27,5,56-1,83v2  c-11,53-42,99-86,130c-35,22-76,35-117,35h-25c-83.1,0-151,68-151,151v152c0,19-15,34-33,34s-33-15-33-34V342.8  c0-5.4-4.4-9.8-9.8-9.8H32.2c-5.4,0-9.8,4.4-9.8,9.8v426.3c0,40.2,31.7,73.7,71.8,74.8c42,1.2,76.2-32.2,76.2-74V620.5  c0-60.5,49.5-110,110-110h24c50,0,98-15,139-43c53-36,89-91,102-154v-2C552.5,278.5,552.5,245.5,546.5,212.5z M272.6,178  c49,0,87,42,82,92c-4,38-35,68-73,72c-50,5-92-33-92-82C190.6,215,227.6,178,272.6,178z M916.5,825.5c0,7,6,14,14,14h15  c6,0,11-5,12-11l4-19c0,0,34,38,88,38c73,0,130-69,130-151c0-84-51-149-137-149c-47,0-76,19-76,19v-213c0-7-6-14-14-14h-22  c-7,0-14,6-14,14V825.5z M966.5,754V611c0,0,30-17,69-17c62,0,94,45,94,102c0,56-33,105-85,105S966.5,754,966.5,754z M348.5,839.5  c-7,0-14-6-14-14v-258c0-7,6-14,14-14h14c6,0,11,4,12,10l6,21c0,0,26-38,86-38c21,0,57,4,50,24l-9,24c-4,9-10,9-17,6c-6-3-17-6-28-6  c-54,0-78,40-78,40v191c0,7-6,14-14,14H348.5z M692.6,846c-79,0-142-69-142-151c0-81,63-149,142-149s142,69,142,149  C834.6,778,771.6,846,692.6,846z M692.6,593c-52,0-93,46-93,102c0,58,41,104,93,104s93-46,93-104C785.6,639,744.6,593,692.6,593z   M1327.5,846.5c-50,0-88-36-88-94c0-54,41-95,114-95c31,0,61,9,61,9c1-53-6-77-46-77c-39,0-73,11-86,16c-7,3-11-1-14-7l-6-18  c-3-9,1-13,8-16c4-2,46-19,99-19c73,0,91,37,91,121v158c0,7-6,14-14,14h-14c-8,0-10-4-12-11l-6-19  C1400.5,824.5,1371.5,846.5,1327.5,846.5z M1353.5,695c-40,0-69,20-69,57c0,29,19,51,50,51c36,0,66-22,79-40v-56  C1405.5,702,1385.5,695,1353.5,695z M1560.5,825.5c0,7,6,14,14,14h15c6,0,11-5,12-11l4-19c0,0,34,38,88,38c73,0,130-69,130-151  c0-84-51-149-137-149c-47,0-76,19-76,19v-213c0-7-6-14-14-14h-22c-7,0-14,6-14,14V825.5z M1610.5,754V611c0,0,30-17,69-17  c62,0,94,45,94,102c0,56-33,105-85,105C1637.5,801,1610.5,754,1610.5,754z M1918.5,839.5c-7,0-14-6-14-14v-472c0-7,6-14,14-14h22  c7,0,14,6,14,14v473c0,7-6,14-14,14L1918.5,839.5L1918.5,839.5z M2148.6,838.5l-91,197c-5,10,1,18,11,18h26c5,0,10-4,12-9l220-474  c5-9,0-16-11-16h-27c-5,0-10,4-12,8l-100,218h-1l-106-218c-2-4-6-8-12-8h-31c-11,0-15,6-11,16L2148.6,838.5z M1590.6,1370  c-72,0-129-62-129-137c0-73,57-136,129-136s129,62,129,136C1719.6,1308,1662.6,1370,1590.6,1370z M1590.6,1140c-47,0-84,42-84,93  c0,53,37,95,84,95s84-42,84-95C1674.6,1182,1637.6,1140,1590.6,1140z M1903.6,1370c-72,0-129-62-129-137c0-73,57-136,129-136  s129,62,129,136C2033.6,1308,1975.6,1370,1903.6,1370z M1903.6,1140c-47,0-84,42-84,93c0,53,37,95,84,95s84-42,84-95  C1988.6,1182,1951.6,1140,1903.6,1140z M2206.5,1370.5c-66,0-118-62-118-137c0-76,47-136,125-136c43,0,70,17,70,17v-193  c0-6.6,5.4-12,12-12h20c7,0,12,6,12,12v430c0,6.6-5.4,12-12,12h-14c-6,0-10-5-11-10l-4-18  C2286.5,1336.5,2254.5,1370.5,2206.5,1370.5z M2218.5,1141c-57,0-85,41-85,93c0,51,30,95,77,95s71-43,71-43v-130  C2281.5,1156,2254.5,1141,2218.5,1141z M1406.4,1160.8c-0.5-11.6-0.8-19.3-3.2-27.6c-1.1-4.2-3.2-9.2-6.2-15  c-5.6-10.7-12.9-19.8-21.7-27.1c-9.2-7.7-18.4-13.3-28.4-13.3c-0.6,0-1,0-2,0h-60.2c-11.7-47.7-54.6-83.3-105.9-83.3  c-62,0-112,51-109,114c2,55,47,101,101,105c57.2,3.9,105.6-35.8,115.6-88.7h48.7c2.2-0.1,4.2-0.1,6.1-0.2c0.1,0.1,0.3,0.1,0.5,0.2  c0.7,0.4,1.8,1.1,3.4,2.4c8.5,7.1,12.2,17.1,12.8,18.8v0.1c0,0,0,0,0,0.1c0.8,2.9,1,7.5,1.4,16.7c0.2,4,0.4,8.1,0,29.8  c-0.1,8-0.3,14.7-0.4,19.4c0,1.3-0.1,2.6-0.2,3.8c-1.7,15.3-9.2,27.5-14.2,35.5l0.5,0.3c-33.1,46.1-100,72.2-186.2,72.2h-1.2  c-102.3-0.3-216.3-89.1-216.3-216.2c0-127.2,112-214.5,216.6-216.2h3.1c66.1,0,117.3,35.4,143.4,58.2c6,5.2,15,4.9,20.6-0.8  l10.5-10.7c6-6.2,5.7-16.1-0.8-21.8c-15.8-13.9-33.3-26.4-51.4-36.6c-40.6-22.8-83-34-126.2-33.3c-126,2.1-260.9,107.6-260.9,261.2  c0,71,29.2,137.6,82.3,187.6c49.6,46.6,114.8,73.5,178.9,73.7h1.2c102.2,0,182.7-33.6,224.1-92.8c0.1-0.1,0.2-0.3,0.3-0.4  c0.7-1,1.4-2,2.1-3.1c7-10.6,17.6-28.5,20.2-51.6c0.3-2.6,0.5-5.3,0.5-7.9c0.1-4.8,0.2-11.6,0.4-19.7  C1406.8,1172,1406.6,1166.4,1406.4,1160.8z M1178.8,1184.1c-49,0-87-42-82-92c4-38,35-68,73-72c50-5,92,33,92,82  C1260.8,1147.1,1223.8,1184.1,1178.8,1184.1z"></path>
</svg>
