<svg xmlns="http://www.w3.org/2000/svg" height="800" width="1200" viewBox="-60 -13.517775 520 81.10665"><g fill="#390e43"><path d="M79.6322 39.5424c-6.8046 0-12.5058-5.8851-12.3219-13.2414 0-7.1724 5.7012-13.0575 12.5058-13.0575 6.8046 0 12.5057 5.885 12.3218 13.2414 0 7.1724-5.7011 13.0575-12.5057 13.0575M79.816.002C65.2874-.1818 53.3333 11.5883 53.3333 26.301c-.1839 14.5287 11.5862 26.4827 26.2989 26.4827 14.5287.184 26.4827-11.5862 26.4827-26.2988C106.115 11.7722 94.345.186 79.8161.002"/><path d="M130.7586 38.9906l8.8276 13.2414 16.3678.184-16.9195-25.5633 17.2873-25.3793H139.954l-9.0115 13.0575-9.0115-13.2414h-16.3678l16.9196 25.3793-17.2874 25.3793h16.5517zM15.816.5539H0L26.2989 52.232 53.3333.9217 37.7012.7377 26.4828 21.8873z"/></g><path d="M327.8466 53.4464l.3382-50.7586 14.161.0943-.3382 50.7586zM243.3104 40.094v-6.4367l22.2528.184.184-12.322-22.4368-.1838v-6.253h24.2758V2.209l-38.9885-.1839-.1839 50.7586 38.8046.3679.1839-12.8736zm51.3103.3679h-5.885l.1838-25.0115h5.8851c6.9885 0 12.5058 5.7012 12.5058 12.5057 0 6.8046-5.7012 12.5058-12.6897 12.5058m1.4713-37.885l-21.3334-.184-.3678 50.7587 21.3333.1839c13.977.1839 25.5633-11.2184 25.5633-25.1954.1839-14.161-11.2184-25.5633-25.1954-25.5633m70.9885 34.2069l6.4367-18.7586 6.253 18.7586zm18.2069 17.1035L400 54.071 381.977 3.1286l-16.5517-.184-18.5747 50.5748 14.7126.1839 2.023-5.5173 20.046.184zM177.1035 24.4619l14.3448 28.138 14.8965-27.9541-.1839 27.954 14.161.184.1839-50.7587-17.6552-.1839-11.0345 21.1494-10.8506-21.3333h-17.839l-.3679 50.7586h14.161z" fill="#ef5654"/></svg>