<?xml version="1.0" encoding="UTF-8"?>
<!-- Generator: Adobe Illustrator 27.5.0, SVG Export Plug-In . SVG Version: 6.00 Build 0)  -->
<svg xmlns="http://www.w3.org/2000/svg" xmlns:xlink="http://www.w3.org/1999/xlink" version="1.1" id="Layer_1" x="0px" y="0px" viewBox="0 0 296.46 300.49" style="enable-background:new 0 0 296.46 300.49;" xml:space="preserve">
<style type="text/css">
	.st0{fill:#041C30;}
	.st1{fill:#FFFFFF;}
	.st2{fill:#00A6A1;}
</style>
<g>
	<g>
		<g>
			<g>
				<g>
					<g>
						<g>
							<path class="st0" d="M21.92,120.55l-1.93,10.39l5.41,3.31l-0.87,4.59L0.23,123.55l0.74-3.92l28.12-4.88l-0.9,4.74         L21.92,120.55z M6.94,123.05l9.08,5.55l1.39-7.36l-10.47,1.77L6.94,123.05z"></path>
							<path class="st0" d="M17.82,97.6l15.28,6.98l-2.01,4.39L6.86,97.9l1.18-2.59l20.6-6.59L14.1,82.07l1.99-4.35l24.23,11.07         l-0.9,1.97L17.82,97.6z"></path>
							<path class="st0" d="M24,65.6l2.85-4.04l21.77,15.35l-2.85,4.04L24,65.6z"></path>
							<path class="st0" d="M71.03,53.25L59.32,42.7l-0.11,0l4.4,16.81l-1.06,0.98l-16.02-5.87l0.02,0.13l9.57,12.33l-3.18,2.95         l-16.75-20.8l2.09-1.94l19.57,6.79l0.03-0.03l-5.22-20.1l1.92-1.78l19.65,18.11L71.03,53.25z"></path>
							<path class="st0" d="M92.14,33.44l-9.33,4.96l0.78,6.29l-4.13,2.18l-3.18-28.52l3.53-1.86l21.33,18.96l-4.27,2.25         L92.14,33.44z M80.86,23.28l1.31,10.56l6.62-3.49l-7.9-7.09L80.86,23.28z"></path>
							<path class="st0" d="M100.54,7.69l4.74-1.26l5.65,21.27l13.44-3.57l1.19,4.48l-18.14,4.82L100.54,7.69z"></path>
							<path class="st0" d="M147.82,13.17c0.76-8.63,7.7-13.4,13.64-12.88c4.73,0.42,7.99,2.88,10.23,5.59l-2.47,3.79         c-1.91-2.19-4.27-4.34-7.98-4.67c-3.98-0.35-8.07,2.88-8.59,8.71c-0.5,5.68,2.96,9.68,6.9,10.03         c3.71,0.33,6.57-1.41,8.87-3.26l2.08,3.65c-1.58,1.88-5.79,4.68-11.39,4.19C153.63,27.83,147.01,22.41,147.82,13.17z"></path>
							<path class="st0" d="M194.87,25.1l-10.23-3.43l-3.36,10.02l-4.65-1.56l8.46-25.25l4.68,1.57l-3.61,10.77l10.2,3.42         l3.61-10.77l4.68,1.57l-8.46,25.25l-4.68-1.57L194.87,25.1z"></path>
							<path class="st0" d="M219.92,43.33l-8.98-5.56l-5.04,3.84l-3.97-2.47l23.04-17.12l3.39,2.11l-5.63,27.97l-4.09-2.55         L219.92,43.33z M223.01,28.47l-8.46,6.46l6.35,3.96l2.14-10.4L223.01,28.47z"></path>
							<path class="st0" d="M241.23,55.1l-2.64-2.68l-7.54,7.4l-3.42-3.46l18.94-18.72l8.52,8.62c3.55,3.59,3.82,8.41,0.55,11.64         c-3.03,2.99-7.59,3.02-10.67,0.66l0.13,0.35l-2.73,11.72l-0.32,0.32l-3.45-3.49C238.61,67.47,240.68,58.54,241.23,55.1z          M252.04,49.5l-5.18-5.24l-4.97,4.91l4.89,5.05c1.92,1.95,4.23,1.91,5.64,0.52C253.79,53.38,253.99,51.47,252.04,49.5z"></path>
							<path class="st0" d="M269.67,63.91l2.79,4.08l-22,15.02l-2.79-4.08L269.67,63.91z"></path>
							<path class="st0" d="M260.71,102.38l-2-4.48l20.33-9.1l-3.68-8.26l3.99-1.78l9.38,21.04l-3.99,1.78l-3.68-8.26L260.71,102.38         z"></path>
							<path class="st0" d="M268.39,128.62l-0.94-4.81l10.1-2.02l14.36-11.72l0.95,4.85l-10.65,8.71l13.08,3.71l0.94,4.81         l-17.96-5.47L268.39,128.62z"></path>
						</g>
						<g>
							<g>
								<path class="st0" d="M40.73,212.21l10.4,15.22l-3.61,2.47l-7.63-11.17l-5.74,3.92l6.52,9.54l-3.48,2.38l-6.52-9.54          l-5.52,3.77l7.85,11.48l-3.64,2.49l-10.61-15.53L40.73,212.21z"></path>
								<path class="st0" d="M56.93,233.84l-8.65,19.56l19.04-9.59l3.54,3.39l-25.68,12.38l-2.93-2.81l11.01-26.46L56.93,233.84z"></path>
								<path class="st0" d="M74.14,273.86l-8.91-5.68l-5.09,3.77l-3.93-2.53l23.27-16.8l3.36,2.16l-6.01,27.9l-4.06-2.61          L74.14,273.86z M77.44,259.04l-8.55,6.34l6.3,4.05l2.28-10.37L77.44,259.04z"></path>
								<path class="st0" d="M96.51,262.48l4.6,1.7l-7.62,20.64l13.05,4.82l-1.61,4.35l-17.61-6.5L96.51,262.48z"></path>
								<path class="st0" d="M123.51,270.97l-1.9,13.31c-0.95,6.66,1.48,8.96,5.24,9.5c3.54,0.5,6.66-1.77,7.53-7.87l1.84-13.13          l4.78,0.68l-1.84,12.86c-1.22,8.58-6.16,13.32-13.01,12.34c-7-1-10.52-6.95-9.31-15.15l1.93-13.23L123.51,270.97z"></path>
								<path class="st0" d="M163.74,292.96l-10.53,0.84l-1.79,6.08l-4.66,0.35l8.44-27.43l3.98-0.3l12.02,25.88l-4.81,0.36          L163.74,292.96z M157.43,279.15l-3,10.21l7.46-0.56l-4.43-9.65L157.43,279.15z"></path>
								<path class="st0" d="M190.98,293.35l-4.72,1.34l-6.11-21.41l-8.7,2.47l-1.19-4.21l22.16-6.28l1.19,4.2l-8.7,2.47          L190.98,293.35z"></path>
								<path class="st0" d="M221.47,281.03c-5.63,3.17-14,2.39-18.52-5.62c-4.72-8.38-0.91-15.71,4.72-18.88          c5.6-3.15,14.1-2.14,18.6,5.84C230.81,270.45,227.06,277.88,221.47,281.03z M209.96,260.6c-4.57,2.57-5.56,7.93-2.94,12.6          c2.52,4.47,7.58,6.33,12.15,3.76c4.54-2.55,5.62-7.75,3.05-12.32C219.61,260.01,214.5,258.05,209.96,260.6z"></path>
								<path class="st0" d="M241.68,252.46l-2.74,2.57l7.2,7.73l-3.55,3.33l-18.23-19.42l8.84-8.29c3.69-3.46,8.5-3.6,11.65-0.25          c2.91,3.1,2.82,7.67,0.39,10.68l0.35-0.12l11.65,3.03l0.31,0.33l-3.57,3.35C253.98,255.41,245.1,253.11,241.68,252.46z           M236.36,241.52l-5.38,5.04l4.78,5.1l5.18-4.75c2-1.87,2.01-4.18,0.66-5.62C240.28,239.87,238.38,239.62,236.36,241.52z"></path>
								<path class="st0" d="M271.8,234.2c-2.17,3.21-4.46,4.7-8.63,6.33l-2.68-3.64c3.69-1.73,6.1-3.12,7.29-4.89          c1.47-2.17,2.8-5.91,0.34-7.57c-1.98-1.34-4.18,0.89-6.62,3.69c-2.98,3.4-6.6,7.19-11.7,3.75          c-5.54-3.74-3.11-9.99-0.86-13.33c2.02-2.99,4.76-5.08,8.4-6.39l2.42,3.33c-2.99,1.24-5.54,3.32-7.07,5.59          c-2.45,3.62-1.74,5.84-0.42,6.73c2.24,1.51,4.94-2.35,5.97-3.54c2.78-3.3,6.86-7.71,12.59-3.83          C276.43,224.21,274.2,230.64,271.8,234.2z"></path>
							</g>
						</g>
						<circle class="st0" cx="16.01" cy="175.7" r="4.72"></circle>
						<circle class="st0" cx="277.58" cy="175.7" r="4.72"></circle>
					</g>
				</g>
			</g>
		</g>
	</g>
	<g>
		<path class="st2" d="M58.38,139.46h-0.01l-7.36,7.38l11.92-1.23l42.32-4.33c19.13-1.44,32.25-14.57,33.71-33.69l0.29-2.8    c0,0,0.19-1.87,0.49-4.78c-2.22,2.29-4.97,4.11-8.1,5.29l-18.52,6.94v2.31c0,2.32-0.43,4.57-1.23,6.67    c-1.94,5.08-7.53,7.74-12.76,6.29c5.38-2.01,9-7.21,9-12.95v-5.77l21.76-8.16c6.07-2.28,10.26-7.69,10.96-14.12l0.83-7.76    c-2.65,2.88-5.97,5.15-9.74,6.56l-27.65,10.3c-0.96-2.58,0.35-5.45,2.93-6.42l22.97-8.57c6.66-2.48,11.57-8.35,12.94-15.25    c0.12-0.63,0.21-1.26,0.28-1.9l1.1-10.12l-0.09,0.04L87.47,74.69c-13.71,5.14-21.08,20.01-16.86,34.03l4.27,14.22    c-1.17-0.34-2.41-0.53-3.68-0.53c-7.15,0-12.95,5.79-12.95,12.94c0,1.29,0.19,2.53,0.54,3.69    C58.82,139.21,58.38,139.46,58.38,139.46z"></path>
		<path class="st2" d="M141.25,213.32c0-0.04,0-0.09-0.01-0.12l-0.23-2.18l-1.08-10.54l-0.8-7.86    c-1.46-19.12-14.58-32.24-33.7-33.69l-38.82-3.97l-15.42-1.58c0,0,0.66,9.1,9.88,10.73c0,0-2.16,8.6-10.56,12.37l3.79,6.08    l0.89,0.04c3.41,0.16,6.62,1.61,8.99,4.07c1.66,1.72,3.75,2.98,6.06,3.61l12.74-13.19c1.93-1.98,6.04-2.44,7.86-0.92l-19.68,20.31    l-0.04,0.04l-6.6,8.93l4.11,4.06l21.84-9.76l1,2.34c0.06,0.12,4.88,11.03,17.63,19.19c0.01,0.01,0.03,0.01,0.04,0.02    c0.24,0.14,0.49,0.26,0.73,0.38c1.71,0.84,4.98,2.88,6.65,3.49l-4.54,16.21l8.96,2.81l7.15-13.41c0,0,0.17-0.04,0.45-0.11    c0,0,0,0,0,0l0,0c0.09-0.02,0.19-0.05,0.31-0.08c-0.01,0-0.01,0-0.02,0c0.01,0,0.01,0,0.01,0c0.01,0,0.02-0.01,0.03-0.01    c0.38-0.1,0.86-0.22,1.39-0.37c0.03-0.01,0.06-0.01,0.09-0.03C135.02,228.64,141.48,223.82,141.25,213.32z"></path>
		<path class="st2" d="M82.3,208.86l-1.9,6.02l6.77,5.06l4.85-7.57c-1.87-2.43-3.17-4.57-4-6.07L82.3,208.86z"></path>
		<path class="st2" d="M131.01,235.21l5.57,14.74H145l-2.37-23.14C139.41,231.62,134.66,234.19,131.01,235.21z"></path>
		<path class="st2" d="M168.66,78.39c-4.87-1.47-10.61-2.24-15.69-2.72l3.43,33.6c1.39,18.23,13.53,30.36,31.68,31.74l1.82,0.19    l31.71,3.24c-0.49-5-1.14-10.85-2.58-15.67c-3.78-12.57-9.53-22.71-18.5-31.67C191.56,88.13,181.23,82.17,168.66,78.39z"></path>
		<path class="st2" d="M170.34,73.1L170,72.75l-8.79-8.8l-3.72-3.71l-6.8-6.8l1.67,16.33C157.52,70.5,164.03,71.58,170.34,73.1z"></path>
		<path class="st2" d="M233.61,136.21l-8.8-8.79l-0.34-0.27c1.51,6.3,2.58,12.76,3.3,17.91l16.35,1.67l-6.81-6.81L233.61,136.21z"></path>
		<path class="st2" d="M232.83,117.15l-5.31,5.31l5.87,5.87l5.31-5.31l0,0c0.01-0.01,0.01-0.02,0.01-0.02l0,0l0,0    c2.19-3.2,3.36-6.99,3.36-10.95c0-5.22-2.02-10.11-5.71-13.81l-9.08-9.07l3.06,14.28l-14.28-3.07L232.83,117.15z"></path>
		<path class="st2" d="M174.6,69.54l5.31-5.31L196.68,81l-3.07-14.28l14.28,3.06l-9.07-9.08c-3.7-3.69-8.59-5.71-13.81-5.71    c-3.96,0-7.75,1.17-10.95,3.36l0,0l0,0c-0.01,0-0.02,0.01-0.02,0.01l0,0l-5.31,5.31L174.6,69.54z"></path>
		<path class="st2" d="M226.09,184.21c-5.27-1.6-9.6-5.16-12.2-10.02c-2.6-4.87-3.14-10.45-1.54-15.72c0.2-0.67,0.44-1.33,0.71-1.97    l-23.52,2.32c-8.28,0.82-15.73,4.31-21.51,9.59c-7.19,6.58-9.41,16.86-5.97,25.98c2.9,7.67,7.22,12.81,10.82,16.03    c5.24-9.58,13.85-11.56,25.58-13.95l-1.97,16.21c7.75-4.62,13.79-11.62,17.22-19.93c6.14-2.11,11.04-4.86,14.95-7.93    C227.8,184.67,226.94,184.47,226.09,184.21z"></path>
		<path class="st2" d="M244.14,153.43L219,155.91c-0.8,1.23-1.43,2.57-1.87,4.01c-1.21,4-0.8,8.23,1.17,11.91    c1.97,3.68,5.25,6.38,9.25,7.59c2.06,0.63,4.19,0.82,6.28,0.59C244.86,167.79,244.14,153.43,244.14,153.43z"></path>
		<path class="st2" d="M169.09,213.72c-0.01-0.02-0.03-0.03-0.04-0.04c-0.11-0.12-0.21-0.24-0.32-0.36c-0.01,0-0.02,0.01-0.03,0.02    c-0.77-0.71-1.56-1.51-2.34-2.38c-3.89-4.27-7.9-10.38-10.3-18.78c-0.03,0.19-0.04,0.37-0.06,0.56l-4.97,57.01    c12.23-1.94,12.28-12.57,18.21-15.2c6.85-3.04,17.08,3.82,28.61-7.75C197.85,226.8,177.85,223.27,169.09,213.72z"></path>
	</g>
</g>
</svg>
