<svg width="796" height="162" viewBox="0 0 796 162" fill="none" xmlns="http://www.w3.org/2000/svg">
<path d="M97.4932 97.4927L64.5075 130.478L94.9945 160.965C96.374 162.345 98.6123 162.345 99.9918 160.965L130.479 130.478L97.4932 97.4927Z" fill="#F78C50"/>
<path d="M130.48 64.5068L97.4945 97.4925L130.48 130.478L163.466 97.4925L130.48 64.5068Z" fill="#F78C50"/>
<path d="M64.5086 64.5068L31.5229 97.4925L64.5086 130.478L97.4943 97.4925L64.5086 64.5068Z" fill="#F78C50"/>
<path opacity="0.35" d="M130.48 64.5068L97.4945 97.4925L130.48 130.478L163.466 97.4925L130.48 64.5068Z" fill="#DA353B"/>
<path opacity="0.35" d="M64.5086 64.5068L31.5229 97.4925L64.5086 130.478L97.4943 97.4925L64.5086 64.5068Z" fill="#DA353B"/>
<path d="M127.982 1.03516L97.4945 31.5217L130.48 64.5074L163.466 31.5217L132.979 1.03516C131.599 -0.345054 129.361 -0.345054 127.982 1.03516Z" fill="#DA353B"/>
<path d="M62.0099 1.03516L31.5229 31.5217L64.5086 64.5074L97.4943 31.5217L67.0072 1.03516C65.6277 -0.345054 63.3894 -0.345054 62.0099 1.03516Z" fill="#DA353B"/>
<path d="M163.465 31.5211L130.479 64.5068L163.465 97.4925L193.952 67.0055C195.331 65.626 195.331 63.3877 193.952 62.0082L163.465 31.5211Z" fill="#F78C50"/>
<path d="M31.5217 31.5211L1.03516 62.0082C-0.345054 63.3877 -0.345054 65.626 1.03516 67.0055L31.5217 97.4925L64.5074 64.5068L31.5217 31.5211Z" fill="#F78C50"/>
<path d="M97.4932 31.5211L64.5075 64.5068L97.4932 97.4925L130.479 64.5068L97.4932 31.5211Z" fill="#F78C50"/>
<path opacity="0.7" d="M163.465 31.5211L130.479 64.5068L163.465 97.4925L193.952 67.0055C195.331 65.626 195.331 63.3877 193.952 62.0082L163.465 31.5211Z" fill="#DA353B"/>
<path opacity="0.7" d="M31.5217 31.5211L1.03516 62.0082C-0.345054 63.3877 -0.345054 65.626 1.03516 67.0055L31.5217 97.4925L64.5074 64.5068L31.5217 31.5211Z" fill="#DA353B"/>
<path opacity="0.7" d="M97.4932 31.5211L64.5075 64.5068L97.4932 97.4925L130.479 64.5068L97.4932 31.5211Z" fill="#DA353B"/>
<path d="M188.896 102.215L161.121 129.99C160.201 130.91 160.201 132.401 161.121 133.322L188.896 161.097C189.816 162.017 191.308 162.017 192.228 161.097L220.003 133.322C220.923 132.401 220.923 130.91 220.003 129.99L192.228 102.215C191.308 101.295 189.816 101.295 188.896 102.215Z" fill="#DA353B"/>
<path d="M188.896 102.215L161.121 129.99C160.201 130.91 160.201 132.401 161.121 133.322L188.896 161.097C189.816 162.017 191.308 162.017 192.228 161.097L220.003 133.322C220.923 132.401 220.923 130.91 220.003 129.99L192.228 102.215C191.308 101.295 189.816 101.295 188.896 102.215Z" fill="#DA353B"/>
<path d="M292.496 37.743H318.654V62.497C315.688 65.5838 311.981 68.0177 307.533 69.7985C303.143 71.5794 298.724 72.4698 294.276 72.4698C288.522 72.4698 283.154 71.0451 278.172 68.1957C273.249 65.287 269.304 61.3988 266.339 56.5311C263.432 51.6634 261.979 46.4099 261.979 40.7705C261.979 35.1311 263.432 29.8776 266.339 25.0099C269.304 20.1422 273.249 16.2836 278.172 13.4343C283.154 10.5849 288.522 9.1602 294.276 9.1602C298.784 9.1602 303.232 10.0506 307.622 11.8315C312.011 13.6124 315.688 16.0165 318.654 19.044L310.736 26.4346C308.838 24.2382 306.376 22.5167 303.351 21.2701C300.326 19.9641 297.301 19.3111 294.276 19.3111C290.539 19.3111 287.04 20.2906 283.777 22.2495C280.574 24.2085 278.024 26.8501 276.126 30.1744C274.228 33.4393 273.279 36.9713 273.279 40.7705C273.279 44.629 274.228 48.2204 276.126 51.5447C278.024 54.8096 280.574 57.4215 283.777 59.3805C287.04 61.3394 290.539 62.3189 294.276 62.3189C296.589 62.3189 298.932 61.933 301.305 61.1613C303.737 60.3896 305.902 59.2914 307.8 57.8667V46.8254H292.496V37.743Z" fill="#3B0024"/>
<path d="M328.305 25.366H339.159V71.4013H328.305V25.366ZM333.732 18.4207C332.012 18.4207 330.529 17.7974 329.283 16.5508C328.097 15.3042 327.504 13.8498 327.504 12.1877C327.504 10.5255 328.097 9.10085 329.283 7.9136C330.529 6.667 332.012 6.0437 333.732 6.0437C335.393 6.0437 336.816 6.667 338.003 7.9136C339.189 9.10085 339.782 10.5255 339.782 12.1877C339.782 13.8498 339.189 15.3042 338.003 16.5508C336.816 17.7974 335.393 18.4207 333.732 18.4207Z" fill="#3B0024"/>
<path d="M345.864 25.366H357.341L370.687 58.8462L383.765 25.366H395.332L375.847 71.4013H365.615L345.864 25.366Z" fill="#3B0024"/>
<path d="M402.071 25.366H412.926V71.4013H402.071V25.366ZM407.499 18.4207C405.779 18.4207 404.296 17.7974 403.05 16.5508C401.864 15.3042 401.271 13.8498 401.271 12.1877C401.271 10.5255 401.864 9.10085 403.05 7.9136C404.296 6.667 405.779 6.0437 407.499 6.0437C409.159 6.0437 410.583 6.667 411.769 7.9136C412.956 9.10085 413.549 10.5255 413.549 12.1877C413.549 13.8498 412.956 15.3042 411.769 16.5508C410.583 17.7974 409.159 18.4207 407.499 18.4207Z" fill="#3B0024"/>
<path d="M448.101 24.2975C451.423 24.2975 454.388 25.0692 456.998 26.6126C459.608 28.0967 461.625 30.204 463.048 32.9347C464.531 35.606 465.273 38.6631 465.273 42.1061V71.4013H454.685V44.2432C454.685 41.097 453.766 38.5444 451.927 36.5855C450.147 34.5672 447.834 33.558 444.987 33.558C441.843 33.558 439.204 34.5375 437.069 36.4964C434.933 38.396 433.866 40.7408 433.866 43.5308V71.4013H423.011V25.366H433.866V31.421C435.289 29.2246 437.247 27.5031 439.738 26.2565C442.288 24.9505 445.076 24.2975 448.101 24.2975Z" fill="#3B0024"/>
<path d="M519.554 25.366V66.5039C519.554 70.4218 518.516 73.8945 516.44 76.922C514.424 80.0088 511.577 82.4129 507.899 84.1344C504.281 85.8559 500.159 86.7167 495.532 86.7167C491.677 86.7167 487.999 86.1527 484.5 85.0249C481 83.897 478.094 82.4129 475.78 80.5727L479.784 72.6479C481.386 74.1319 483.432 75.2895 485.923 76.1206C488.474 77.011 491.113 77.4562 493.842 77.4562C498.349 77.4562 501.938 76.4471 504.607 74.4287C507.276 72.4104 508.611 69.6501 508.611 66.1477V60.2709C506.772 62.7641 504.489 64.6934 501.76 66.0587C499.032 67.3647 496.066 68.0177 492.863 68.0177C488.948 68.0177 485.419 67.0975 482.275 65.2573C479.132 63.3577 476.67 60.7458 474.891 57.4215C473.111 54.0973 472.221 50.3278 472.221 46.1131C472.221 41.8984 473.111 38.1586 474.891 34.8936C476.67 31.5694 479.132 28.9871 482.275 27.1469C485.419 25.2473 488.948 24.2975 492.863 24.2975C496.125 24.2975 499.15 25.0099 501.938 26.4346C504.726 27.7999 506.95 29.6995 508.611 32.1333V25.366H519.554ZM495.977 58.7572C499.654 58.7572 502.679 57.5699 505.052 55.1955C507.425 52.821 508.611 49.7935 508.611 46.1131C508.611 42.4326 507.425 39.4348 505.052 37.1197C502.679 34.7452 499.654 33.558 495.977 33.558C492.359 33.558 489.363 34.7452 486.991 37.1197C484.618 39.4348 483.432 42.4326 483.432 46.1131C483.432 49.7935 484.589 52.821 486.902 55.1955C489.274 57.5699 492.299 58.7572 495.977 58.7572Z" fill="#3B0024"/>
<path d="M259.879 97.4137H271.173L283.463 138.302L296.915 97.4137H308.209L321.661 138.302L333.951 97.4137H345.245L327.225 154.508H316.845L302.645 112.124L288.279 154.508H277.899L259.879 97.4137Z" fill="#3B0024"/>
<path d="M376.609 110.545C379.71 110.545 382.45 111.265 384.83 112.705C387.266 114.09 389.148 116.057 390.477 118.606C391.861 121.099 392.553 123.953 392.553 127.166V154.508H382.671V129.161C382.671 126.224 381.841 123.842 380.18 122.013C378.519 120.13 376.36 119.188 373.703 119.188C370.769 119.188 368.278 120.102 366.229 121.93C364.236 123.703 363.24 125.892 363.24 128.496V154.508H353.109V96.4164H363.24V117.359C364.569 115.309 366.423 113.675 368.804 112.456C371.184 111.182 373.786 110.545 376.609 110.545Z" fill="#3B0024"/>
<path d="M419.623 110.545C425.27 110.545 429.726 112.207 432.992 115.531C436.314 118.8 437.975 123.177 437.975 128.662V154.508H428.093V149.439C426.543 151.322 424.55 152.818 422.114 153.926C419.678 154.979 417.187 155.505 414.641 155.505C411.596 155.505 408.855 154.951 406.42 153.843C404.039 152.68 402.157 151.073 400.773 149.023C399.389 146.918 398.697 144.508 398.697 141.793C398.697 139.023 399.472 136.557 401.022 134.396C402.572 132.235 404.676 130.546 407.333 129.327C409.99 128.108 412.924 127.498 416.135 127.498C419.955 127.498 423.941 128.246 428.093 129.742V128.662C428.093 125.836 427.235 123.509 425.519 121.681C423.858 119.797 421.228 118.855 417.63 118.855C414.198 118.855 410.322 119.936 406.004 122.096L402.517 115.032C408.606 112.041 414.308 110.545 419.623 110.545ZM416.883 148.109C419.485 148.109 421.865 147.472 424.024 146.197C426.239 144.923 427.595 143.206 428.093 141.045V136.142C424.771 135.089 421.284 134.562 417.63 134.562C415.028 134.562 412.841 135.227 411.07 136.557C409.298 137.831 408.413 139.466 408.413 141.46C408.413 143.455 409.215 145.062 410.821 146.281C412.426 147.499 414.447 148.109 416.883 148.109Z" fill="#3B0024"/>
<path d="M471.028 152.098C469.81 153.151 468.371 153.982 466.71 154.591C465.105 155.201 463.472 155.505 461.811 155.505C458.268 155.505 455.361 154.342 453.091 152.015C450.877 149.688 449.77 146.724 449.77 143.122V119.936H443.542V111.542H449.77V99.7407H459.569V111.542H469.284V119.936H459.569V141.876C459.569 143.316 459.984 144.508 460.814 145.449C461.645 146.391 462.641 146.862 463.804 146.862C464.634 146.862 465.437 146.724 466.212 146.447C467.042 146.114 467.679 145.726 468.122 145.283L471.028 152.098Z" fill="#3B0024"/>
<path d="M498.782 97.4137H510.076L522.366 138.302L535.818 97.4137H547.112L560.564 138.302L572.854 97.4137H584.148L566.128 154.508H555.748L541.548 112.124L527.182 154.508H516.802L498.782 97.4137Z" fill="#3B0024"/>
<path d="M606.338 147.361C608.553 147.361 610.74 146.945 612.899 146.114C615.113 145.283 616.912 144.203 618.296 142.873L624.109 148.857C622.282 150.796 619.708 152.403 616.386 153.677C613.065 154.896 609.826 155.505 606.671 155.505C602.574 155.505 598.809 154.536 595.377 152.597C591.945 150.657 589.204 147.97 587.156 144.535C585.163 141.1 584.167 137.222 584.167 132.9C584.167 128.634 585.135 124.811 587.073 121.432C589.011 118.052 591.64 115.392 594.962 113.453C598.339 111.514 602.048 110.545 606.089 110.545C612.677 110.545 617.826 112.816 621.535 117.359C625.299 121.903 627.182 128.108 627.182 135.975H593.965C594.519 139.41 595.903 142.181 598.117 144.286C600.332 146.336 603.072 147.361 606.338 147.361ZM606.255 118.689C603.211 118.689 600.581 119.659 598.367 121.598C596.152 123.482 594.713 126.03 594.048 129.244H617.383C616.885 126.086 615.667 123.537 613.729 121.598C611.847 119.659 609.356 118.689 606.255 118.689Z" fill="#3B0024"/>
<path d="M681.89 155.505C676.576 155.505 671.621 154.176 667.026 151.516C662.431 148.801 658.75 145.172 655.982 140.629C653.269 136.086 651.913 131.183 651.913 125.919C651.913 120.656 653.269 115.78 655.982 111.293C658.75 106.749 662.431 103.148 667.026 100.489C671.621 97.7739 676.576 96.4164 681.89 96.4164C685.987 96.4164 689.89 97.2475 693.599 98.9096C697.364 100.516 700.658 102.76 703.481 105.641L696.09 112.539C694.263 110.489 692.104 108.882 689.613 107.719C687.177 106.5 684.603 105.891 681.89 105.891C678.458 105.891 675.247 106.805 672.258 108.633C669.268 110.461 666.888 112.927 665.116 116.03C663.345 119.077 662.459 122.373 662.459 125.919C662.459 129.521 663.345 132.873 665.116 135.975C666.888 139.023 669.268 141.46 672.258 143.289C675.247 145.117 678.458 146.031 681.89 146.031C684.603 146.031 687.177 145.449 689.613 144.286C692.104 143.122 694.263 141.488 696.09 139.383L703.481 146.197C700.713 149.134 697.447 151.433 693.682 153.095C689.973 154.702 686.042 155.505 681.89 155.505Z" fill="#3B0024"/>
<path d="M729.33 110.545C734.977 110.545 739.434 112.207 742.7 115.531C746.022 118.8 747.682 123.177 747.682 128.662V154.508H737.801V149.439C736.25 151.322 734.257 152.818 731.822 153.926C729.386 154.979 726.895 155.505 724.348 155.505C721.303 155.505 718.563 154.951 716.127 153.843C713.746 152.68 711.864 151.073 710.48 149.023C709.096 146.918 708.404 144.508 708.404 141.793C708.404 139.023 709.179 136.557 710.729 134.396C712.279 132.235 714.383 130.546 717.04 129.327C719.698 128.108 722.632 127.498 725.843 127.498C729.663 127.498 733.649 128.246 737.801 129.742V128.662C737.801 125.836 736.942 123.509 735.226 121.681C733.565 119.797 730.936 118.855 727.337 118.855C723.905 118.855 720.03 119.936 715.712 122.096L712.224 115.032C718.314 112.041 724.016 110.545 729.33 110.545ZM726.59 148.109C729.192 148.109 731.573 147.472 733.732 146.197C735.946 144.923 737.302 143.206 737.801 141.045V136.142C734.479 135.089 730.991 134.562 727.337 134.562C724.736 134.562 722.549 135.227 720.777 136.557C719.006 137.831 718.12 139.466 718.12 141.46C718.12 143.455 718.923 145.062 720.528 146.281C722.134 147.499 724.154 148.109 726.59 148.109Z" fill="#3B0024"/>
<path d="M779.727 110.545C782.828 110.545 785.596 111.265 788.031 112.705C790.467 114.09 792.35 116.057 793.678 118.606C795.062 121.099 795.754 123.953 795.754 127.166V154.508H785.872V129.161C785.872 126.224 785.014 123.842 783.298 122.013C781.637 120.13 779.478 119.188 776.821 119.188C773.887 119.188 771.423 120.102 769.43 121.93C767.437 123.703 766.441 125.892 766.441 128.496V154.508H756.31V111.542H766.441V117.193C767.77 115.143 769.597 113.536 771.922 112.373C774.302 111.154 776.904 110.545 779.727 110.545Z" fill="#3B0024"/>
</svg>
